<mxfile modified="2022-03-28T17:52:06.254Z" host="app.diagrams.net" agent="5.0 (Windows NT 10.0; Win64; x64) AppleWebKit/537.36 (KHTML, like Gecko) Chrome/99.0.4844.82 Safari/537.36" etag="nm4tbYTtd6qjx4QOihK7" version="17.2.4" type="github">
  <diagram id="f106602c-feb2-e66a-4537-3a34d633f6aa" name="Page-1">
    <mxGraphModel dx="1422" dy="1564" grid="1" gridSize="10" guides="1" tooltips="1" connect="1" arrows="1" fold="1" page="1" pageScale="1" pageWidth="1169" pageHeight="827" background="none" math="0" shadow="0">
      <root>
        <mxCell id="0" />
        <mxCell id="1" parent="0" />
        <mxCell id="q55NmXWhRlVkNF6GybgC-1068" value="" style="group" parent="1" vertex="1" connectable="0">
          <mxGeometry x="235" y="-630" width="995" height="812" as="geometry" />
        </mxCell>
        <mxCell id="14" value="&lt;b&gt;Google &lt;/b&gt;Cloud Platform" style="fillColor=#F6F6F6;strokeColor=none;shadow=0;gradientColor=none;fontSize=14;align=left;spacing=10;fontColor=#717171;9E9E9E;verticalAlign=top;spacingTop=-4;fontStyle=0;spacingLeft=40;html=1;container=0;" parent="q55NmXWhRlVkNF6GybgC-1068" vertex="1">
          <mxGeometry width="994.9999999999999" height="811.9999999999999" as="geometry" />
        </mxCell>
        <mxCell id="15" value="" style="shape=mxgraph.gcp2.google_cloud_platform;fillColor=#F6F6F6;strokeColor=none;shadow=0;gradientColor=none;" parent="q55NmXWhRlVkNF6GybgC-1068" vertex="1">
          <mxGeometry x="21.397849462365592" y="10.410256410256409" width="24.60752688172043" height="20.820512820512818" as="geometry">
            <mxPoint x="20" y="10" as="offset" />
          </mxGeometry>
        </mxCell>
        <mxCell id="q55NmXWhRlVkNF6GybgC-1057" value="Stackdriver" style="sketch=0;html=1;fillColor=#5184F3;strokeColor=none;verticalAlign=top;labelPosition=center;verticalLabelPosition=bottom;align=center;spacingTop=-6;fontSize=11;fontStyle=1;fontColor=#999999;shape=mxgraph.gcp2.hexIcon;prIcon=stackdriver;fontFamily=Helvetica;" parent="q55NmXWhRlVkNF6GybgC-1068" vertex="1">
          <mxGeometry x="919.0376344086021" y="733.9230769230769" width="70.61290322580645" height="60.89999999999999" as="geometry" />
        </mxCell>
        <mxCell id="q55NmXWhRlVkNF6GybgC-1056" value="Istio" style="editableCssRules=.*;shape=image;verticalLabelPosition=bottom;labelBackgroundColor=#ffffff;verticalAlign=top;aspect=fixed;imageAspect=0;image=data:image/svg+xml,PHN2ZyB4bWxucz0iaHR0cDovL3d3dy53My5vcmcvMjAwMC9zdmciIHhtbG5zOnY9Imh0dHBzOi8vdmVjdGEuaW8vbmFubyIgd2lkdGg9IjE2MCIgaGVpZ2h0PSIyNDAiIHZpZXdCb3g9IjAgMCAxNjAgMjQwIj4mI3hhOwk8c3R5bGUgdHlwZT0idGV4dC9jc3MiPiYjeGE7CS5zdDB7ZmlsbDojNDY2YmIwO30mI3hhOwk8L3N0eWxlPiYjeGE7CTxwYXRoIGNsYXNzPSJzdDAiIGQ9Ik02MCAyNDBMMCAyMTBoMTYwem0wLTE2MEwwIDIwMGw2MC0xMHpNNzAgMHYxOTBsOTAgMTB6Ii8+JiN4YTs8L3N2Zz4=;fontColor=default;fontFamily=Helvetica;fontSize=12;" parent="q55NmXWhRlVkNF6GybgC-1068" vertex="1">
          <mxGeometry x="848.9596774193548" y="722.315641025641" width="43" height="66.15" as="geometry" />
        </mxCell>
        <mxCell id="yQ8WLYdv6VudN-hRy9nO-1002" value="Multiple Regions -Â  Authorization System" style="swimlane;dashed=1;" parent="q55NmXWhRlVkNF6GybgC-1068" vertex="1">
          <mxGeometry x="208.6290322580645" y="20" width="775.6720430107526" height="660" as="geometry" />
        </mxCell>
        <mxCell id="7UuU4Cvj1GYO3khtZWb2-1003" value="&lt;b&gt;&lt;font style=&quot;font-size: 21px&quot; color=&quot;#00274f&quot;&gt;3&lt;/font&gt;&lt;/b&gt;" style="text;html=1;strokeColor=#6c8ebf;fillColor=#dae8fc;align=center;verticalAlign=middle;whiteSpace=wrap;rounded=0;" vertex="1" parent="yQ8WLYdv6VudN-hRy9nO-1002">
          <mxGeometry x="286.3709677419355" y="70" width="30" height="30" as="geometry" />
        </mxCell>
        <mxCell id="7UuU4Cvj1GYO3khtZWb2-1004" value="&lt;b&gt;&lt;font style=&quot;font-size: 21px&quot; color=&quot;#00274f&quot;&gt;3&lt;/font&gt;&lt;/b&gt;" style="text;html=1;strokeColor=#6c8ebf;fillColor=#dae8fc;align=center;verticalAlign=middle;whiteSpace=wrap;rounded=0;" vertex="1" parent="yQ8WLYdv6VudN-hRy9nO-1002">
          <mxGeometry x="286.3709677419355" y="150.10000000000002" width="30" height="30" as="geometry" />
        </mxCell>
        <mxCell id="7UuU4Cvj1GYO3khtZWb2-1005" value="&lt;b&gt;&lt;font style=&quot;font-size: 21px&quot; color=&quot;#00274f&quot;&gt;3&lt;/font&gt;&lt;/b&gt;" style="text;html=1;strokeColor=#6c8ebf;fillColor=#dae8fc;align=center;verticalAlign=middle;whiteSpace=wrap;rounded=0;" vertex="1" parent="yQ8WLYdv6VudN-hRy9nO-1002">
          <mxGeometry x="46.37096774193549" y="220" width="30" height="30" as="geometry" />
        </mxCell>
        <mxCell id="7UuU4Cvj1GYO3khtZWb2-1006" value="&lt;b&gt;&lt;font style=&quot;font-size: 21px&quot; color=&quot;#00274f&quot;&gt;3&lt;/font&gt;&lt;/b&gt;" style="text;html=1;strokeColor=#6c8ebf;fillColor=#dae8fc;align=center;verticalAlign=middle;whiteSpace=wrap;rounded=0;" vertex="1" parent="yQ8WLYdv6VudN-hRy9nO-1002">
          <mxGeometry x="46.37096774193549" y="310" width="30" height="30" as="geometry" />
        </mxCell>
        <mxCell id="7UuU4Cvj1GYO3khtZWb2-1007" value="&lt;b&gt;&lt;font style=&quot;font-size: 21px&quot; color=&quot;#00274f&quot;&gt;3&lt;/font&gt;&lt;/b&gt;" style="text;html=1;strokeColor=#6c8ebf;fillColor=#dae8fc;align=center;verticalAlign=middle;whiteSpace=wrap;rounded=0;" vertex="1" parent="yQ8WLYdv6VudN-hRy9nO-1002">
          <mxGeometry x="46.37096774193549" y="530" width="30" height="30" as="geometry" />
        </mxCell>
        <mxCell id="7UuU4Cvj1GYO3khtZWb2-1016" value="&lt;b&gt;&lt;font style=&quot;font-size: 21px&quot; color=&quot;#00274f&quot;&gt;6&lt;/font&gt;&lt;/b&gt;" style="text;html=1;strokeColor=#6c8ebf;fillColor=#dae8fc;align=center;verticalAlign=middle;whiteSpace=wrap;rounded=0;" vertex="1" parent="yQ8WLYdv6VudN-hRy9nO-1002">
          <mxGeometry x="186.3709677419355" y="610" width="30" height="30" as="geometry" />
        </mxCell>
        <mxCell id="7UuU4Cvj1GYO3khtZWb2-1001" value="&lt;b&gt;&lt;font style=&quot;font-size: 21px&quot; color=&quot;#00274f&quot;&gt;7&lt;/font&gt;&lt;/b&gt;" style="text;html=1;strokeColor=#6c8ebf;fillColor=#dae8fc;align=center;verticalAlign=middle;whiteSpace=wrap;rounded=0;" vertex="1" parent="yQ8WLYdv6VudN-hRy9nO-1002">
          <mxGeometry x="406.3709677419355" y="600" width="30" height="30" as="geometry" />
        </mxCell>
        <mxCell id="7UuU4Cvj1GYO3khtZWb2-1023" value="&lt;b&gt;&lt;font style=&quot;font-size: 21px&quot; color=&quot;#00274f&quot;&gt;3&lt;/font&gt;&lt;/b&gt;" style="text;html=1;strokeColor=#6c8ebf;fillColor=#dae8fc;align=center;verticalAlign=middle;whiteSpace=wrap;rounded=0;" vertex="1" parent="yQ8WLYdv6VudN-hRy9nO-1002">
          <mxGeometry x="646.3709677419355" y="490" width="30" height="30" as="geometry" />
        </mxCell>
        <mxCell id="7UuU4Cvj1GYO3khtZWb2-1021" value="&lt;b&gt;&lt;font style=&quot;font-size: 21px&quot; color=&quot;#00274f&quot;&gt;8&lt;/font&gt;&lt;/b&gt;" style="text;html=1;strokeColor=#6c8ebf;fillColor=#dae8fc;align=center;verticalAlign=middle;whiteSpace=wrap;rounded=0;" vertex="1" parent="yQ8WLYdv6VudN-hRy9nO-1002">
          <mxGeometry x="666.3709677419355" y="250" width="30" height="30" as="geometry" />
        </mxCell>
        <mxCell id="q55NmXWhRlVkNF6GybgC-1016" value="" style="strokeColor=#dddddd;shadow=1;strokeWidth=1;rounded=1;absoluteArcSize=1;arcSize=2;" parent="q55NmXWhRlVkNF6GybgC-1068" vertex="1">
          <mxGeometry x="720" y="251.48000000000002" width="139" height="60" as="geometry" />
        </mxCell>
        <mxCell id="q55NmXWhRlVkNF6GybgC-1017" value="Cloud&#xa;Spanner" style="sketch=0;dashed=0;connectable=0;html=1;fillColor=#5184F3;strokeColor=none;shape=mxgraph.gcp2.hexIcon;prIcon=cloud_spanner;part=1;labelPosition=right;verticalLabelPosition=middle;align=left;verticalAlign=middle;spacingLeft=5;fontColor=#999999;fontSize=12;" parent="q55NmXWhRlVkNF6GybgC-1016" vertex="1">
          <mxGeometry y="0.5" width="44" height="39" relative="1" as="geometry">
            <mxPoint x="5" y="-19.5" as="offset" />
          </mxGeometry>
        </mxCell>
        <mxCell id="7UuU4Cvj1GYO3khtZWb2-999" value="&lt;b&gt;&lt;font style=&quot;font-size: 21px&quot; color=&quot;#00274f&quot;&gt;1&lt;/font&gt;&lt;/b&gt;" style="text;html=1;strokeColor=#6c8ebf;fillColor=#dae8fc;align=center;verticalAlign=middle;whiteSpace=wrap;rounded=0;" vertex="1" parent="q55NmXWhRlVkNF6GybgC-1068">
          <mxGeometry x="75" y="300" width="30" height="30" as="geometry" />
        </mxCell>
        <mxCell id="7UuU4Cvj1GYO3khtZWb2-1000" value="&lt;b&gt;&lt;font style=&quot;font-size: 21px&quot; color=&quot;#00274f&quot;&gt;2&lt;/font&gt;&lt;/b&gt;" style="text;html=1;strokeColor=#6c8ebf;fillColor=#dae8fc;align=center;verticalAlign=middle;whiteSpace=wrap;rounded=0;" vertex="1" parent="q55NmXWhRlVkNF6GybgC-1068">
          <mxGeometry x="175" y="330" width="30" height="30" as="geometry" />
        </mxCell>
        <mxCell id="7UuU4Cvj1GYO3khtZWb2-1022" value="&lt;b&gt;&lt;font style=&quot;font-size: 21px&quot; color=&quot;#00274f&quot;&gt;4&lt;/font&gt;&lt;/b&gt;" style="text;html=1;strokeColor=#6c8ebf;fillColor=#dae8fc;align=center;verticalAlign=middle;whiteSpace=wrap;rounded=0;" vertex="1" parent="q55NmXWhRlVkNF6GybgC-1068">
          <mxGeometry x="255" y="703.92" width="30" height="30" as="geometry" />
        </mxCell>
        <mxCell id="818" value="Authorization System Architecture " style="fillColor=#4DA1F5;strokeColor=none;shadow=1;gradientColor=none;fontSize=14;align=left;spacingLeft=50;fontColor=#ffffff;html=1;" parent="1" vertex="1">
          <mxGeometry x="35" y="-762" width="1195" height="40" as="geometry" />
        </mxCell>
        <mxCell id="999" style="edgeStyle=orthogonalEdgeStyle;rounded=0;elbow=vertical;html=1;labelBackgroundColor=none;startFill=1;startSize=4;endArrow=blockThin;endFill=1;endSize=4;jettySize=auto;orthogonalLoop=1;strokeColor=#4284F3;strokeWidth=2;fontSize=12;fontColor=#000000;align=left;dashed=0;entryX=0;entryY=0.25;entryDx=0;entryDy=0;" parent="1" source="997" target="989" edge="1">
          <mxGeometry relative="1" as="geometry">
            <Array as="points" />
            <mxPoint x="455" y="-458" as="targetPoint" />
          </mxGeometry>
        </mxCell>
        <mxCell id="998" style="edgeStyle=elbowEdgeStyle;rounded=0;elbow=vertical;html=1;labelBackgroundColor=none;startFill=1;startSize=4;endArrow=blockThin;endFill=1;endSize=4;jettySize=auto;orthogonalLoop=1;strokeColor=#4284F3;strokeWidth=2;fontSize=12;fontColor=#000000;align=left;dashed=0;" parent="1" source="997" target="989" edge="1">
          <mxGeometry relative="1" as="geometry" />
        </mxCell>
        <mxCell id="q55NmXWhRlVkNF6GybgC-1015" style="edgeStyle=orthogonalEdgeStyle;rounded=0;orthogonalLoop=1;jettySize=auto;html=1;exitX=1;exitY=0.5;exitDx=0;exitDy=0;entryX=0;entryY=0.5;entryDx=0;entryDy=0;strokeWidth=2;strokeColor=#4284F3;endArrow=blockThin;endFill=1;labelBackgroundColor=none;fontSize=12;align=left;fontColor=#000000;startFill=1;startSize=4;endSize=4;dashed=0;" parent="1" source="989" target="q55NmXWhRlVkNF6GybgC-1013" edge="1">
          <mxGeometry relative="1" as="geometry" />
        </mxCell>
        <mxCell id="q55NmXWhRlVkNF6GybgC-1025" style="edgeStyle=orthogonalEdgeStyle;rounded=0;orthogonalLoop=1;jettySize=auto;html=1;endArrow=blockThin;endFill=1;strokeColor=#4284F3;strokeWidth=2;labelBackgroundColor=none;fontSize=12;align=left;fontColor=#000000;startFill=1;startSize=4;endSize=4;dashed=0;" parent="1" source="989" target="q55NmXWhRlVkNF6GybgC-1019" edge="1">
          <mxGeometry relative="1" as="geometry" />
        </mxCell>
        <mxCell id="q55NmXWhRlVkNF6GybgC-1026" style="edgeStyle=orthogonalEdgeStyle;rounded=0;orthogonalLoop=1;jettySize=auto;html=1;entryX=0;entryY=0.5;entryDx=0;entryDy=0;endArrow=blockThin;endFill=1;strokeColor=#4284F3;strokeWidth=2;labelBackgroundColor=none;fontSize=12;align=left;fontColor=#000000;startFill=1;startSize=4;endSize=4;dashed=0;" parent="1" source="989" target="q55NmXWhRlVkNF6GybgC-1023" edge="1">
          <mxGeometry relative="1" as="geometry" />
        </mxCell>
        <mxCell id="q55NmXWhRlVkNF6GybgC-1048" style="edgeStyle=orthogonalEdgeStyle;shape=connector;rounded=0;orthogonalLoop=1;jettySize=auto;html=1;entryX=0;entryY=0.5;entryDx=0;entryDy=0;dashed=0;labelBackgroundColor=none;fontFamily=Helvetica;fontSize=12;fontColor=#000000;startFill=1;endArrow=blockThin;endFill=1;startSize=4;endSize=4;strokeColor=#4284F3;strokeWidth=2;" parent="1" source="989" target="q55NmXWhRlVkNF6GybgC-1001" edge="1">
          <mxGeometry relative="1" as="geometry" />
        </mxCell>
        <mxCell id="q55NmXWhRlVkNF6GybgC-1064" style="edgeStyle=orthogonalEdgeStyle;shape=connector;rounded=0;orthogonalLoop=1;jettySize=auto;html=1;entryX=0;entryY=0.5;entryDx=0;entryDy=0;dashed=0;labelBackgroundColor=none;fontFamily=Helvetica;fontSize=12;fontColor=#000000;startFill=1;endArrow=blockThin;endFill=1;startSize=4;endSize=4;strokeColor=#4284F3;strokeWidth=2;" parent="1" source="989" target="q55NmXWhRlVkNF6GybgC-1062" edge="1">
          <mxGeometry relative="1" as="geometry" />
        </mxCell>
        <mxCell id="989" value="" style="strokeColor=#dddddd;fillColor=#ffffff;shadow=1;strokeWidth=1;rounded=1;absoluteArcSize=1;arcSize=2;fontSize=11;fontColor=#9E9E9E;align=center;html=1;" parent="1" vertex="1">
          <mxGeometry x="265" y="-287.9" width="130" height="60" as="geometry" />
        </mxCell>
        <mxCell id="990" value="Cloud Load&#xa;Balancing" style="dashed=0;connectable=0;html=1;fillColor=#5184F3;strokeColor=none;shape=mxgraph.gcp2.hexIcon;prIcon=cloud_load_balancing;part=1;labelPosition=right;verticalLabelPosition=middle;align=left;verticalAlign=middle;spacingLeft=5;fontColor=#999999;fontSize=12;" parent="989" vertex="1">
          <mxGeometry y="0.5" width="44" height="39" relative="1" as="geometry">
            <mxPoint x="5" y="-19.5" as="offset" />
          </mxGeometry>
        </mxCell>
        <mxCell id="q55NmXWhRlVkNF6GybgC-1028" style="edgeStyle=orthogonalEdgeStyle;shape=connector;rounded=0;orthogonalLoop=1;jettySize=auto;html=1;entryX=0;entryY=0.5;entryDx=0;entryDy=0;dashed=0;labelBackgroundColor=none;fontFamily=Helvetica;fontSize=12;fontColor=#000000;startFill=1;endArrow=blockThin;endFill=1;startSize=4;endSize=4;strokeColor=#4284F3;strokeWidth=2;" parent="1" source="q55NmXWhRlVkNF6GybgC-1001" target="q55NmXWhRlVkNF6GybgC-1016" edge="1">
          <mxGeometry relative="1" as="geometry" />
        </mxCell>
        <mxCell id="q55NmXWhRlVkNF6GybgC-1031" value="User Profile and Permissions" style="edgeLabel;html=1;align=center;verticalAlign=middle;resizable=0;points=[];fontSize=12;fontFamily=Helvetica;fontColor=#000000;" parent="q55NmXWhRlVkNF6GybgC-1028" vertex="1" connectable="0">
          <mxGeometry x="-0.2638" y="5" relative="1" as="geometry">
            <mxPoint x="53" y="18" as="offset" />
          </mxGeometry>
        </mxCell>
        <mxCell id="q55NmXWhRlVkNF6GybgC-1032" value="" style="edgeStyle=orthogonalEdgeStyle;shape=connector;rounded=0;orthogonalLoop=1;jettySize=auto;html=1;dashed=0;labelBackgroundColor=none;fontFamily=Helvetica;fontSize=12;fontColor=#000000;startFill=1;endArrow=blockThin;endFill=1;startSize=4;endSize=4;strokeColor=#4284F3;strokeWidth=2;" parent="1" source="q55NmXWhRlVkNF6GybgC-1001" target="q55NmXWhRlVkNF6GybgC-1016" edge="1">
          <mxGeometry relative="1" as="geometry" />
        </mxCell>
        <mxCell id="q55NmXWhRlVkNF6GybgC-1053" style="edgeStyle=orthogonalEdgeStyle;shape=connector;rounded=0;orthogonalLoop=1;jettySize=auto;html=1;dashed=0;labelBackgroundColor=none;fontFamily=Helvetica;fontSize=12;fontColor=#000000;startFill=1;endArrow=blockThin;endFill=1;startSize=4;endSize=4;strokeColor=#4284F3;strokeWidth=2;exitX=1;exitY=0.5;exitDx=0;exitDy=0;" parent="1" source="q55NmXWhRlVkNF6GybgC-1001" target="q55NmXWhRlVkNF6GybgC-1050" edge="1">
          <mxGeometry relative="1" as="geometry">
            <mxPoint x="885" y="-593" as="targetPoint" />
            <Array as="points">
              <mxPoint x="715" y="-368" />
              <mxPoint x="850" y="-368" />
            </Array>
          </mxGeometry>
        </mxCell>
        <mxCell id="q55NmXWhRlVkNF6GybgC-1055" value="User Basic Profile and Groups" style="edgeLabel;html=1;align=center;verticalAlign=middle;resizable=0;points=[];fontSize=12;fontFamily=Helvetica;fontColor=#000000;" parent="q55NmXWhRlVkNF6GybgC-1053" vertex="1" connectable="0">
          <mxGeometry x="0.2252" y="-2" relative="1" as="geometry">
            <mxPoint x="8" y="-7" as="offset" />
          </mxGeometry>
        </mxCell>
        <mxCell id="q55NmXWhRlVkNF6GybgC-1060" style="edgeStyle=orthogonalEdgeStyle;shape=connector;rounded=0;orthogonalLoop=1;jettySize=auto;html=1;entryX=0.75;entryY=0;entryDx=0;entryDy=0;dashed=0;labelBackgroundColor=none;fontFamily=Helvetica;fontSize=12;fontColor=#000000;startFill=1;endArrow=blockThin;endFill=1;startSize=4;endSize=4;strokeColor=#4284F3;strokeWidth=2;" parent="1" source="q55NmXWhRlVkNF6GybgC-1001" target="995" edge="1">
          <mxGeometry relative="1" as="geometry">
            <Array as="points">
              <mxPoint x="765" y="-348" />
              <mxPoint x="765" y="-197" />
              <mxPoint x="668" y="-197" />
            </Array>
          </mxGeometry>
        </mxCell>
        <mxCell id="q55NmXWhRlVkNF6GybgC-1061" value="Authz User Change" style="edgeLabel;html=1;align=center;verticalAlign=middle;resizable=0;points=[];fontSize=12;fontFamily=Helvetica;fontColor=#000000;" parent="q55NmXWhRlVkNF6GybgC-1060" vertex="1" connectable="0">
          <mxGeometry x="0.7676" y="-1" relative="1" as="geometry">
            <mxPoint x="28" y="13" as="offset" />
          </mxGeometry>
        </mxCell>
        <mxCell id="q55NmXWhRlVkNF6GybgC-1001" value="" style="strokeColor=#dddddd;fillColor=#ffffff;shadow=1;strokeWidth=1;rounded=1;absoluteArcSize=1;arcSize=2;fontSize=11;fontColor=#9E9E9E;align=center;html=1;" parent="1" vertex="1">
          <mxGeometry x="525.06" y="-386.61" width="189.94" height="76.19" as="geometry" />
        </mxCell>
        <mxCell id="q55NmXWhRlVkNF6GybgC-1002" value="&lt;div&gt;&lt;font color=&quot;#000000&quot;&gt;User Management API&lt;/font&gt;&lt;br&gt;&lt;/div&gt;&lt;div&gt;Spring Boot Container&lt;br&gt;&lt;/div&gt;&lt;hr&gt;&lt;font style=&quot;font-size: 11px&quot;&gt;Google Kubernetes Engine&lt;br&gt;&lt;/font&gt;" style="dashed=0;connectable=0;html=1;fillColor=#5184F3;strokeColor=none;shape=mxgraph.gcp2.hexIcon;prIcon=container_engine;part=1;labelPosition=right;verticalLabelPosition=middle;align=left;verticalAlign=top;spacingLeft=5;fontColor=#999999;fontSize=12;spacingTop=-8;" parent="q55NmXWhRlVkNF6GybgC-1001" vertex="1">
          <mxGeometry width="44" height="39" relative="1" as="geometry">
            <mxPoint x="5" y="7" as="offset" />
          </mxGeometry>
        </mxCell>
        <mxCell id="q55NmXWhRlVkNF6GybgC-1040" style="edgeStyle=orthogonalEdgeStyle;shape=connector;rounded=0;orthogonalLoop=1;jettySize=auto;html=1;entryX=0;entryY=0.5;entryDx=0;entryDy=0;dashed=0;labelBackgroundColor=none;fontFamily=Helvetica;fontSize=12;fontColor=#000000;startFill=1;endArrow=blockThin;endFill=1;startSize=4;endSize=4;strokeColor=#4284F3;strokeWidth=2;" parent="1" source="995" target="q55NmXWhRlVkNF6GybgC-1038" edge="1">
          <mxGeometry relative="1" as="geometry" />
        </mxCell>
        <mxCell id="q55NmXWhRlVkNF6GybgC-1074" style="edgeStyle=orthogonalEdgeStyle;shape=connector;rounded=0;orthogonalLoop=1;jettySize=auto;html=1;dashed=0;labelBackgroundColor=none;fontFamily=Helvetica;fontSize=12;fontColor=#000000;startFill=1;endArrow=blockThin;endFill=1;startSize=4;endSize=4;strokeColor=#4284F3;strokeWidth=2;exitX=1;exitY=0.25;exitDx=0;exitDy=0;" parent="1" source="995" target="q55NmXWhRlVkNF6GybgC-1033" edge="1">
          <mxGeometry relative="1" as="geometry">
            <Array as="points">
              <mxPoint x="745" y="-64" />
              <mxPoint x="745" y="-98" />
              <mxPoint x="845" y="-98" />
            </Array>
          </mxGeometry>
        </mxCell>
        <mxCell id="995" value="" style="strokeColor=#dddddd;fillColor=#ffffff;shadow=1;strokeWidth=1;rounded=1;absoluteArcSize=1;arcSize=2;fontSize=11;fontColor=#9E9E9E;align=center;html=1;" parent="1" vertex="1">
          <mxGeometry x="525.06" y="-83" width="189.94" height="76.19" as="geometry" />
        </mxCell>
        <mxCell id="996" value="&lt;div&gt;&lt;font color=&quot;#000000&quot;&gt;AuthZ API&lt;/font&gt;&lt;br&gt;&lt;/div&gt;&lt;div&gt;Go Lang OPA &lt;br&gt;&lt;/div&gt;&lt;hr&gt;&lt;font style=&quot;font-size: 11px&quot;&gt;Google Kubernetes Engine&lt;/font&gt;" style="dashed=0;connectable=0;html=1;fillColor=#5184F3;strokeColor=none;shape=mxgraph.gcp2.hexIcon;prIcon=container_engine;part=1;labelPosition=right;verticalLabelPosition=middle;align=left;verticalAlign=top;spacingLeft=5;fontColor=#999999;fontSize=12;spacingTop=-8;" parent="995" vertex="1">
          <mxGeometry width="44" height="39" relative="1" as="geometry">
            <mxPoint x="5" y="7" as="offset" />
          </mxGeometry>
        </mxCell>
        <mxCell id="q55NmXWhRlVkNF6GybgC-1013" value="" style="strokeColor=#dddddd;fillColor=#ffffff;shadow=1;strokeWidth=1;rounded=1;absoluteArcSize=1;arcSize=2;fontSize=11;fontColor=#9E9E9E;align=center;html=1;" parent="1" vertex="1">
          <mxGeometry x="525.06" y="-573" width="189.94" height="76.19" as="geometry" />
        </mxCell>
        <mxCell id="q55NmXWhRlVkNF6GybgC-1014" value="&lt;div&gt;&lt;font color=&quot;#000000&quot;&gt;User Management UI&lt;/font&gt;&lt;/div&gt;&lt;div&gt;nginx container&lt;br&gt;&lt;/div&gt;&lt;hr&gt;&lt;font style=&quot;font-size: 11px&quot;&gt;Google Kubernetes Engine&lt;/font&gt;" style="dashed=0;connectable=0;html=1;fillColor=#5184F3;strokeColor=none;shape=mxgraph.gcp2.hexIcon;prIcon=container_engine;part=1;labelPosition=right;verticalLabelPosition=middle;align=left;verticalAlign=top;spacingLeft=5;fontColor=#999999;fontSize=12;spacingTop=-8;" parent="q55NmXWhRlVkNF6GybgC-1013" vertex="1">
          <mxGeometry width="44" height="39" relative="1" as="geometry">
            <mxPoint x="5" y="7" as="offset" />
          </mxGeometry>
        </mxCell>
        <mxCell id="q55NmXWhRlVkNF6GybgC-1018" value="" style="group" parent="1" vertex="1" connectable="0">
          <mxGeometry x="55" y="-423" width="110" height="230" as="geometry" />
        </mxCell>
        <mxCell id="997" value="Multiple&lt;br&gt;Clients&lt;br&gt;UI/API Requests" style="rounded=1;absoluteArcSize=1;arcSize=2;html=1;strokeColor=none;gradientColor=none;shadow=0;dashed=0;fontSize=12;fontColor=#9E9E9E;align=left;verticalAlign=top;spacing=10;spacingTop=-4;fillColor=#F1F8E9;" parent="q55NmXWhRlVkNF6GybgC-1018" vertex="1">
          <mxGeometry width="110.00000000000001" height="230" as="geometry" />
        </mxCell>
        <mxCell id="985" value="" style="strokeColor=#dddddd;fillColor=#ffffff;shadow=1;strokeWidth=1;rounded=1;absoluteArcSize=1;arcSize=2;labelPosition=center;verticalLabelPosition=middle;align=center;verticalAlign=bottom;spacingLeft=0;fontColor=#999999;fontSize=12;whiteSpace=wrap;spacingBottom=2;html=1;" parent="q55NmXWhRlVkNF6GybgC-1018" vertex="1">
          <mxGeometry x="13.444444444444446" y="60" width="85.55555555555556" height="70" as="geometry" />
        </mxCell>
        <mxCell id="986" value="" style="dashed=0;connectable=0;html=1;fillColor=#757575;strokeColor=none;shape=mxgraph.gcp2.mobile_devices;part=1;" parent="985" vertex="1">
          <mxGeometry x="0.5" width="50" height="36.5" relative="1" as="geometry">
            <mxPoint x="-25" y="16.75" as="offset" />
          </mxGeometry>
        </mxCell>
        <mxCell id="987" value="" style="strokeColor=#dddddd;fillColor=#ffffff;shadow=1;strokeWidth=1;rounded=1;absoluteArcSize=1;arcSize=2;labelPosition=center;verticalLabelPosition=middle;align=center;verticalAlign=bottom;spacingLeft=0;fontColor=#999999;fontSize=12;whiteSpace=wrap;spacingBottom=2;html=1;" parent="q55NmXWhRlVkNF6GybgC-1018" vertex="1">
          <mxGeometry x="13.444444444444446" y="149.5" width="85.55555555555556" height="70" as="geometry" />
        </mxCell>
        <mxCell id="988" value="" style="dashed=0;connectable=0;html=1;fillColor=#757575;strokeColor=none;shape=mxgraph.gcp2.laptop;part=1;" parent="987" vertex="1">
          <mxGeometry x="0.5" width="50" height="33" relative="1" as="geometry">
            <mxPoint x="-25" y="18.5" as="offset" />
          </mxGeometry>
        </mxCell>
        <mxCell id="q55NmXWhRlVkNF6GybgC-1029" style="edgeStyle=orthogonalEdgeStyle;shape=connector;rounded=0;orthogonalLoop=1;jettySize=auto;html=1;entryX=0.5;entryY=1;entryDx=0;entryDy=0;dashed=0;labelBackgroundColor=none;fontFamily=Helvetica;fontSize=12;fontColor=#000000;startFill=1;endArrow=blockThin;endFill=1;startSize=4;endSize=4;strokeColor=#4284F3;strokeWidth=2;" parent="1" source="q55NmXWhRlVkNF6GybgC-1019" target="q55NmXWhRlVkNF6GybgC-1016" edge="1">
          <mxGeometry relative="1" as="geometry" />
        </mxCell>
        <mxCell id="q55NmXWhRlVkNF6GybgC-1030" value="Roles and Functions" style="edgeLabel;html=1;align=center;verticalAlign=middle;resizable=0;points=[];fontSize=12;fontFamily=Helvetica;fontColor=#000000;" parent="q55NmXWhRlVkNF6GybgC-1029" vertex="1" connectable="0">
          <mxGeometry x="-0.1966" relative="1" as="geometry">
            <mxPoint as="offset" />
          </mxGeometry>
        </mxCell>
        <mxCell id="q55NmXWhRlVkNF6GybgC-1035" style="edgeStyle=orthogonalEdgeStyle;shape=connector;rounded=0;orthogonalLoop=1;jettySize=auto;html=1;entryX=0;entryY=0.5;entryDx=0;entryDy=0;dashed=0;labelBackgroundColor=none;fontFamily=Helvetica;fontSize=12;fontColor=#000000;startFill=1;endArrow=blockThin;endFill=1;startSize=4;endSize=4;strokeColor=#4284F3;strokeWidth=2;exitX=1;exitY=0.75;exitDx=0;exitDy=0;" parent="1" source="q55NmXWhRlVkNF6GybgC-1019" target="q55NmXWhRlVkNF6GybgC-1033" edge="1">
          <mxGeometry relative="1" as="geometry" />
        </mxCell>
        <mxCell id="q55NmXWhRlVkNF6GybgC-1059" value="Authz Permission Change" style="edgeStyle=orthogonalEdgeStyle;shape=connector;rounded=0;orthogonalLoop=1;jettySize=auto;html=1;dashed=0;labelBackgroundColor=none;fontFamily=Helvetica;fontSize=12;fontColor=#000000;startFill=1;endArrow=blockThin;endFill=1;startSize=4;endSize=4;strokeColor=#4284F3;strokeWidth=2;" parent="1" source="q55NmXWhRlVkNF6GybgC-1019" target="995" edge="1">
          <mxGeometry x="-0.2426" y="-35" relative="1" as="geometry">
            <mxPoint as="offset" />
          </mxGeometry>
        </mxCell>
        <mxCell id="q55NmXWhRlVkNF6GybgC-1019" value="" style="strokeColor=#dddddd;fillColor=#ffffff;shadow=1;strokeWidth=1;rounded=1;absoluteArcSize=1;arcSize=2;fontSize=11;fontColor=#9E9E9E;align=center;html=1;" parent="1" vertex="1">
          <mxGeometry x="525.06" y="-296" width="189.94" height="76.19" as="geometry" />
        </mxCell>
        <mxCell id="q55NmXWhRlVkNF6GybgC-1020" value="&lt;div&gt;&lt;font color=&quot;#000000&quot;&gt;Admin API&lt;/font&gt;&lt;br&gt;&lt;/div&gt;&lt;div&gt;Spring Boot Container&lt;br&gt;&lt;/div&gt;&lt;hr&gt;&lt;font style=&quot;font-size: 11px&quot;&gt;Google Kubernetes Engine&lt;br&gt;&lt;/font&gt;" style="dashed=0;connectable=0;html=1;fillColor=#5184F3;strokeColor=none;shape=mxgraph.gcp2.hexIcon;prIcon=container_engine;part=1;labelPosition=right;verticalLabelPosition=middle;align=left;verticalAlign=top;spacingLeft=5;fontColor=#999999;fontSize=12;spacingTop=-8;" parent="q55NmXWhRlVkNF6GybgC-1019" vertex="1">
          <mxGeometry width="44" height="39" relative="1" as="geometry">
            <mxPoint x="5" y="7" as="offset" />
          </mxGeometry>
        </mxCell>
        <mxCell id="q55NmXWhRlVkNF6GybgC-1023" value="" style="strokeColor=#dddddd;fillColor=#ffffff;shadow=1;strokeWidth=1;rounded=1;absoluteArcSize=1;arcSize=2;fontSize=11;fontColor=#9E9E9E;align=center;html=1;" parent="1" vertex="1">
          <mxGeometry x="525.06" y="-483" width="189.94" height="76.19" as="geometry" />
        </mxCell>
        <mxCell id="q55NmXWhRlVkNF6GybgC-1024" value="&lt;div&gt;&lt;font color=&quot;#000000&quot;&gt;Admin UI&lt;/font&gt;&lt;/div&gt;&lt;div&gt;nginx container&lt;br&gt;&lt;/div&gt;&lt;hr&gt;&lt;font style=&quot;font-size: 11px&quot;&gt;Google Kubernetes Engine&lt;/font&gt;" style="dashed=0;connectable=0;html=1;fillColor=#5184F3;strokeColor=none;shape=mxgraph.gcp2.hexIcon;prIcon=container_engine;part=1;labelPosition=right;verticalLabelPosition=middle;align=left;verticalAlign=top;spacingLeft=5;fontColor=#999999;fontSize=12;spacingTop=-8;" parent="q55NmXWhRlVkNF6GybgC-1023" vertex="1">
          <mxGeometry width="44" height="39" relative="1" as="geometry">
            <mxPoint x="5" y="7" as="offset" />
          </mxGeometry>
        </mxCell>
        <mxCell id="q55NmXWhRlVkNF6GybgC-1033" value="" style="strokeColor=#dddddd;shadow=1;strokeWidth=1;rounded=1;absoluteArcSize=1;arcSize=2;fontFamily=Helvetica;fontSize=12;fontColor=#000000;" parent="1" vertex="1">
          <mxGeometry x="775" y="-203" width="140" height="60" as="geometry" />
        </mxCell>
        <mxCell id="q55NmXWhRlVkNF6GybgC-1034" value="&lt;font color=&quot;#000000&quot;&gt;Policy Files&lt;/font&gt;&lt;br&gt;Cloud Storage" style="sketch=0;dashed=0;connectable=0;html=1;fillColor=#5184F3;strokeColor=none;shape=mxgraph.gcp2.hexIcon;prIcon=cloud_storage;part=1;labelPosition=right;verticalLabelPosition=middle;align=left;verticalAlign=middle;spacingLeft=5;fontColor=#999999;fontSize=12;fontFamily=Helvetica;" parent="q55NmXWhRlVkNF6GybgC-1033" vertex="1">
          <mxGeometry y="0.5" width="44" height="39" relative="1" as="geometry">
            <mxPoint x="5" y="-19.5" as="offset" />
          </mxGeometry>
        </mxCell>
        <mxCell id="q55NmXWhRlVkNF6GybgC-1038" value="" style="strokeColor=#dddddd;shadow=1;strokeWidth=1;rounded=1;absoluteArcSize=1;arcSize=2;fontFamily=Helvetica;fontSize=12;fontColor=#000000;" parent="1" vertex="1">
          <mxGeometry x="775" y="-74.89999999999998" width="170" height="60" as="geometry" />
        </mxCell>
        <mxCell id="q55NmXWhRlVkNF6GybgC-1039" value="&lt;font color=&quot;#000000&quot;&gt;Redis - User Cache&lt;/font&gt;&lt;br&gt;Cloud Memorystore" style="sketch=0;dashed=0;connectable=0;html=1;fillColor=#5184F3;strokeColor=none;shape=mxgraph.gcp2.hexIcon;prIcon=cloud_memorystore;part=1;labelPosition=right;verticalLabelPosition=middle;align=left;verticalAlign=middle;spacingLeft=5;fontColor=#999999;fontSize=12;fontFamily=Helvetica;" parent="q55NmXWhRlVkNF6GybgC-1038" vertex="1">
          <mxGeometry y="0.5" width="44" height="39" relative="1" as="geometry">
            <mxPoint x="5" y="-19.5" as="offset" />
          </mxGeometry>
        </mxCell>
        <mxCell id="q55NmXWhRlVkNF6GybgC-1043" value="read user profile" style="edgeStyle=orthogonalEdgeStyle;shape=connector;rounded=0;orthogonalLoop=1;jettySize=auto;html=1;entryX=0.75;entryY=1;entryDx=0;entryDy=0;dashed=0;labelBackgroundColor=none;fontFamily=Helvetica;fontSize=12;fontColor=#000000;startFill=1;endArrow=blockThin;endFill=1;startSize=4;endSize=4;strokeColor=#4284F3;strokeWidth=2;exitX=0.553;exitY=0.026;exitDx=0;exitDy=0;exitPerimeter=0;" parent="1" source="q55NmXWhRlVkNF6GybgC-1041" target="q55NmXWhRlVkNF6GybgC-1016" edge="1">
          <mxGeometry x="-0.3316" y="-45" relative="1" as="geometry">
            <Array as="points" />
            <mxPoint as="offset" />
          </mxGeometry>
        </mxCell>
        <mxCell id="q55NmXWhRlVkNF6GybgC-1045" style="edgeStyle=orthogonalEdgeStyle;shape=connector;rounded=0;orthogonalLoop=1;jettySize=auto;html=1;entryX=1;entryY=0.5;entryDx=0;entryDy=0;dashed=0;labelBackgroundColor=none;fontFamily=Helvetica;fontSize=12;fontColor=#000000;startFill=1;endArrow=blockThin;endFill=1;startSize=4;endSize=4;strokeColor=#4284F3;strokeWidth=2;exitX=0.5;exitY=1;exitDx=0;exitDy=0;" parent="1" source="q55NmXWhRlVkNF6GybgC-1041" target="q55NmXWhRlVkNF6GybgC-1038" edge="1">
          <mxGeometry relative="1" as="geometry">
            <Array as="points">
              <mxPoint x="1055" y="-127" />
              <mxPoint x="1055" y="-45" />
            </Array>
          </mxGeometry>
        </mxCell>
        <mxCell id="yQ8WLYdv6VudN-hRy9nO-1003" value="update cache" style="edgeLabel;html=1;align=center;verticalAlign=middle;resizable=0;points=[];" parent="q55NmXWhRlVkNF6GybgC-1045" vertex="1" connectable="0">
          <mxGeometry x="0.096" y="-2" relative="1" as="geometry">
            <mxPoint x="-24" y="13" as="offset" />
          </mxGeometry>
        </mxCell>
        <mxCell id="q55NmXWhRlVkNF6GybgC-1041" value="" style="strokeColor=#dddddd;fillColor=#ffffff;shadow=1;strokeWidth=1;rounded=1;absoluteArcSize=1;arcSize=2;fontSize=11;fontColor=#9E9E9E;align=center;html=1;" parent="1" vertex="1">
          <mxGeometry x="955" y="-203" width="190" height="76.19" as="geometry" />
        </mxCell>
        <mxCell id="q55NmXWhRlVkNF6GybgC-1042" value="&lt;div&gt;&lt;font color=&quot;#000000&quot;&gt;User Cache Refresh Job&lt;/font&gt;&lt;br&gt;&lt;/div&gt;&lt;div&gt;Spring Boot Container&lt;br&gt;&lt;/div&gt;&lt;hr&gt;&lt;font style=&quot;font-size: 11px&quot;&gt;Google Kubernetes Engine&lt;br&gt;&lt;/font&gt;" style="dashed=0;connectable=0;html=1;fillColor=#5184F3;strokeColor=none;shape=mxgraph.gcp2.hexIcon;prIcon=container_engine;part=1;labelPosition=right;verticalLabelPosition=middle;align=left;verticalAlign=top;spacingLeft=5;fontColor=#999999;fontSize=12;spacingTop=-8;" parent="q55NmXWhRlVkNF6GybgC-1041" vertex="1">
          <mxGeometry width="44" height="39" relative="1" as="geometry">
            <mxPoint x="5" y="7" as="offset" />
          </mxGeometry>
        </mxCell>
        <mxCell id="q55NmXWhRlVkNF6GybgC-1051" value="" style="group" parent="1" vertex="1" connectable="0">
          <mxGeometry x="315" y="-203" width="640" height="68" as="geometry" />
        </mxCell>
        <mxCell id="q55NmXWhRlVkNF6GybgC-1052" value="" style="group" parent="q55NmXWhRlVkNF6GybgC-1051" vertex="1" connectable="0">
          <mxGeometry x="430" y="-556" width="210" height="104.5" as="geometry" />
        </mxCell>
        <mxCell id="q55NmXWhRlVkNF6GybgC-1050" value="" style="rounded=0;whiteSpace=wrap;html=1;fontFamily=Helvetica;fontSize=12;fontColor=#000000;" parent="q55NmXWhRlVkNF6GybgC-1052" vertex="1">
          <mxGeometry y="59" width="210" height="60" as="geometry" />
        </mxCell>
        <mxCell id="q55NmXWhRlVkNF6GybgC-1049" value="" style="shape=image;html=1;verticalAlign=top;verticalLabelPosition=bottom;labelBackgroundColor=#ffffff;imageAspect=0;aspect=fixed;image=https://cdn1.iconfinder.com/data/icons/unicons-line-vol-5/24/okta-128.png;fontFamily=Helvetica;fontSize=12;fontColor=#000000;" parent="q55NmXWhRlVkNF6GybgC-1052" vertex="1">
          <mxGeometry y="55" width="68" height="68" as="geometry" />
        </mxCell>
        <mxCell id="q55NmXWhRlVkNF6GybgC-1071" value="&lt;font style=&quot;font-size: 31px&quot;&gt;Okta&lt;/font&gt;" style="text;html=1;strokeColor=none;fillColor=none;align=center;verticalAlign=middle;whiteSpace=wrap;rounded=0;fontFamily=Helvetica;fontSize=12;fontColor=#000000;" parent="q55NmXWhRlVkNF6GybgC-1052" vertex="1">
          <mxGeometry x="72.94000000000005" y="71.5" width="60" height="30" as="geometry" />
        </mxCell>
        <mxCell id="q55NmXWhRlVkNF6GybgC-1065" value="Authz business functions" style="edgeStyle=orthogonalEdgeStyle;shape=connector;rounded=0;orthogonalLoop=1;jettySize=auto;html=1;dashed=0;labelBackgroundColor=none;fontFamily=Helvetica;fontSize=12;fontColor=#000000;startFill=1;endArrow=blockThin;endFill=1;startSize=4;endSize=4;strokeColor=#4284F3;strokeWidth=2;" parent="1" source="q55NmXWhRlVkNF6GybgC-1062" target="995" edge="1">
          <mxGeometry relative="1" as="geometry" />
        </mxCell>
        <mxCell id="q55NmXWhRlVkNF6GybgC-1062" value="" style="shape=mxgraph.gcp2.doubleRect;strokeColor=#b85450;shadow=1;strokeWidth=1;fontFamily=Helvetica;fontSize=12;fillColor=#f8cecc;" parent="1" vertex="1">
          <mxGeometry x="525" y="87" width="190" height="68" as="geometry" />
        </mxCell>
        <mxCell id="q55NmXWhRlVkNF6GybgC-1063" value="&lt;div&gt;&lt;font color=&quot;#000000&quot;&gt;HR Services Applications&lt;/font&gt;&lt;/div&gt;&lt;div&gt;&lt;font color=&quot;#000000&quot;&gt;&lt;br&gt;&lt;/font&gt;&lt;/div&gt;" style="sketch=0;dashed=0;connectable=0;html=1;fillColor=#5184F3;strokeColor=none;shape=mxgraph.gcp2.hexIcon;prIcon=compute_engine;part=1;labelPosition=right;verticalLabelPosition=middle;align=left;verticalAlign=middle;spacingLeft=5;fontColor=#999999;fontSize=12;fontFamily=Helvetica;" parent="q55NmXWhRlVkNF6GybgC-1062" vertex="1">
          <mxGeometry y="0.5" width="44" height="39" relative="1" as="geometry">
            <mxPoint x="5" y="-19.5" as="offset" />
          </mxGeometry>
        </mxCell>
        <mxCell id="q55NmXWhRlVkNF6GybgC-1069" style="edgeStyle=orthogonalEdgeStyle;shape=connector;rounded=0;orthogonalLoop=1;jettySize=auto;html=1;dashed=0;labelBackgroundColor=none;fontFamily=Helvetica;fontSize=12;fontColor=#000000;startFill=1;endArrow=blockThin;endFill=1;startSize=4;endSize=4;strokeColor=#4284F3;strokeWidth=2;" parent="1" source="997" edge="1">
          <mxGeometry relative="1" as="geometry">
            <mxPoint x="745" y="-678" as="targetPoint" />
            <Array as="points">
              <mxPoint x="110" y="-678" />
            </Array>
          </mxGeometry>
        </mxCell>
        <mxCell id="q55NmXWhRlVkNF6GybgC-1070" value="Authenticate Users" style="edgeLabel;html=1;align=center;verticalAlign=middle;resizable=0;points=[];fontSize=12;fontFamily=Helvetica;fontColor=#000000;" parent="q55NmXWhRlVkNF6GybgC-1069" vertex="1" connectable="0">
          <mxGeometry x="-0.0012" y="2" relative="1" as="geometry">
            <mxPoint as="offset" />
          </mxGeometry>
        </mxCell>
        <mxCell id="q55NmXWhRlVkNF6GybgC-1073" value="Authentication Service Provider" style="text;html=1;strokeColor=none;fillColor=none;align=center;verticalAlign=middle;whiteSpace=wrap;rounded=0;fontFamily=Helvetica;fontSize=12;fontColor=#000000;" parent="1" vertex="1">
          <mxGeometry x="955" y="-684" width="150" height="30" as="geometry" />
        </mxCell>
        <mxCell id="7UuU4Cvj1GYO3khtZWb2-1017" value="&lt;b&gt;&lt;font style=&quot;font-size: 21px&quot; color=&quot;#00274f&quot;&gt;5&lt;/font&gt;&lt;/b&gt;" style="text;html=1;strokeColor=#6c8ebf;fillColor=#dae8fc;align=center;verticalAlign=middle;whiteSpace=wrap;rounded=0;" vertex="1" parent="1">
          <mxGeometry x="700" y="-670" width="30" height="30" as="geometry" />
        </mxCell>
      </root>
    </mxGraphModel>
  </diagram>
</mxfile>
